<svg width="1440" height="1310" viewBox="0 0 1440 1310" fill="none" xmlns="http://www.w3.org/2000/svg">
<g style="mix-blend-mode:overlay">
<path d="M467.537 337.569L471.531 330.132M467.537 337.569L463.407 345.257M467.537 337.569H589.845M467.537 337.569L342.292 164.68M471.531 330.132L475.397 322.933M471.531 330.132L363.305 191.579M471.531 330.132H591.842M475.397 322.933L363.305 191.579M475.397 322.933H593.776M363.305 191.579L342.827 165.363L342.292 164.68M832.463 330.132L830.529 322.933M832.463 330.132L834.46 337.569M832.463 330.132H952.774M832.463 330.132H712.153M952.774 330.132L948.909 322.933M952.774 330.132L956.768 337.569M952.774 330.132H1027.56M948.909 322.933H1031.68M948.909 322.933H830.529M1031.68 322.933L1027.56 330.132M1031.68 322.933L1083.64 232.363M830.529 322.933H712.153M712.153 322.933V330.132M712.153 322.933H593.776M593.776 322.933L591.842 330.132M-1751.33 204.267L-1713.36 244.994M-1751.33 204.267L-1708.01 235.305M-1751.33 204.267L-1803.95 216.718M-1751.33 204.267L-1777.9 271.412L-1777.93 271.489L-1786.02 291.909M-1713.36 244.994L-1708.01 235.305M-1713.36 244.994L-1719.63 256.349M-1268.42 201.648L-1272.25 200.624L-1295.81 194.328M-1268.42 201.648L-1272.38 201.725L-1273.08 201.737L-1314.41 202.538M-1268.42 201.648L-1238.27 225.739M-1295.81 194.328L-1328.23 185.665M-1295.81 194.328L-1283.96 172.437M-1328.23 185.665L-1437.93 156.352M-1328.23 185.665L-1286.93 173.323M-1437.93 156.352L-1602.26 166.426M-1437.93 156.352L-1472.37 310.606M-1602.26 166.426L-1698.08 239.836M-1602.26 166.426L-1611.56 346.933M-1698.08 239.836L-1705.46 230.695M-1698.08 239.836L-1625.24 330.006L-1625.13 330.132L-1611.56 346.933M-767.154 353.527L-906.924 400.423M-767.154 353.527L-715.596 328.973M-767.154 353.527L-807.646 397.305L-807.782 397.451L-855.528 449.07M-767.154 353.527L-776.284 431.789M-906.924 400.423L-937.473 353.835L-937.708 353.483L-973.396 299.058L-973.711 298.574L-973.918 298.258L-974.155 297.9L-1020.09 227.843L-1020.42 227.348M-906.924 400.423L-920.108 474.956M-906.924 400.423L-893.213 48.6833M-1020.42 227.348L-1022.96 223.474M-1020.42 227.348L-1020.01 226.777L-980.589 171.407L-980.36 171.083L-970.515 157.255M-1022.96 223.474L-1065.49 158.614M-1022.96 223.474L-1018.56 207.792M-1065.49 158.614L-1113.07 86.0537M-1065.49 158.614L-1014.58 155.656M-1113.07 86.0537L-1156.49 160.149M-1113.07 86.0537L-1129.43 294.704L-1129.45 294.989L-1134.3 356.888L-1135.45 371.46M-1156.49 160.149L-1172.75 187.889L-1172.78 187.945L-1187.3 212.719M-1156.49 160.149L-1214.92 152.114M-1187.3 212.719L-1191.63 220.115M-1187.3 212.719L-1264.89 180.386M-1191.63 220.115L-1208.75 249.334M-1191.63 220.115L-1238.27 225.739M-1208.75 249.334L-1240.64 303.749M-1208.75 249.334L-1238.27 225.739M-1240.64 303.749L-1259.5 335.944M-1240.64 303.749L-1313.8 203.377L-1314.41 202.538M-1259.5 335.944L-1235.51 342.812L-1186.19 356.931L-1184.99 357.277L-1136.57 371.136L-1135.45 371.46M-1259.5 335.944L-1321.15 318.297M-716.067 173.829L-707.712 175.24M-716.067 173.829L-736.001 178.708M-716.067 173.829L-729.741 181.808M-716.067 173.829L-691.582 164.91M-707.712 175.24L-727.341 182.995M-707.712 175.24L-683.578 165.705M-683.578 165.705L-691.582 164.91M-683.578 165.705L-612.052 137.448M-691.582 164.91L-738.729 177.357M-211.751 742.5L-253.813 741.541M-211.751 742.5L104.108 1014.11M-211.751 742.5L-178.201 623.552M-253.813 741.541L-469.572 777.154M-253.813 741.541L77.9331 1062.84M-253.813 741.541L-292.562 893.992M-469.572 777.154L-493.76 781.146L-493.793 781.151M-469.572 777.154L-467.306 761.529M-493.793 781.151L-572.607 794.16M-493.793 781.151L-467.306 761.529M-572.607 794.16L-715.011 784.348M-572.607 794.16L-632.723 811.407M-715.011 784.348L-972.506 766.609M-715.011 784.348L-705.307 729.493M-972.506 766.609L-992.469 782.567M-972.506 766.609L-632.723 811.407M-972.506 766.609L-1032.96 1051.88M-992.469 782.567L-1225.97 969.251M-992.469 782.567L-986.452 758.782M-1225.97 969.251L-1282.08 1014.11M-1225.97 969.251H-1331.66M-1282.08 1014.11L-1343.03 1062.84M-1282.08 1014.11H-1416.01M-1343.03 1062.84L-1378.08 1090.86M-1343.03 1062.84H-1507.62M-1378.08 1090.86L-1480.18 1115.94M-1378.08 1090.86L-1472.65 1237.91M-1378.08 1090.86L-1032.96 1051.88M-1480.18 1115.94L-1716.73 1174.06M-1480.18 1115.94H-1607.47M-1716.73 1174.06L-1607.47 1115.94M-1716.73 1174.06L-1836.78 1237.91M-1716.73 1174.06H-1899.57M-1607.47 1115.94L-1507.62 1062.84M-1607.47 1115.94H-1899.57M150.468 927.808L47.055 832.078M150.468 927.808L128.206 969.251M150.468 927.808L171.096 889.411M150.468 927.808H431.311M47.055 832.078L33.7161 819.729M47.055 832.078L171.096 889.411M33.7161 819.729L-59.7973 733.16L-61.544 731.546M33.7161 819.729L190.262 853.732M-61.544 731.546L-159.048 641.284M-61.544 731.546L-49.5627 662.367M-159.048 641.284L-161.285 639.213M-159.048 641.284L-112.924 650.165M-161.285 639.213L-178.201 623.552M-161.285 639.213H-101.158M-178.201 623.552L-220.046 591.194M-178.201 623.552L128.206 969.251M-178.201 623.552L-283.647 673.875L-467.306 761.529M-220.046 591.194L-269.639 552.844M-220.046 591.194L-79.3119 618.879M-269.639 552.844L-369.102 475.929L-369.703 475.467L-438.226 422.478M-269.639 552.844L-255.266 511.763M-438.226 422.478L-482.25 404.795M-438.226 422.478L-705.307 729.493M-438.226 422.478L-444.989 501.337L-445.008 501.567L-446.3 516.636L-446.336 517.038L-467.306 761.529M-482.25 404.795L-517.195 390.757L-518.191 390.358L-526.078 387.19L-526.554 386.998L-568.602 370.109L-569.587 369.714L-633.447 344.063L-633.95 343.862L-649.569 337.588L-649.615 337.569L-653.35 336.069M-482.25 404.795L-463.266 243.746M-653.35 336.069L-653.397 336.05L-653.402 336.048M-653.35 336.069L-653.342 335.968M-653.402 336.048L-653.342 335.968M-653.402 336.048L-670.087 329.347M-670.087 329.347L-676.641 326.714M-670.087 329.347L-652.025 298.701M-676.641 326.714L-692.347 348.617L-692.428 348.73L-747.479 425.509M-676.641 326.714L-705.307 729.493M-747.479 425.509L-747.694 425.807L-925.302 673.5M-747.479 425.509L-776.284 431.789M-925.302 673.5L-931.007 681.459M-925.302 673.5L-883.117 455.086M-931.007 681.459L-986.452 758.782M-931.007 681.459L-1205.06 628.014M-986.452 758.782L-1252.65 921.079M-986.452 758.782L-705.307 729.493M-1252.65 921.079L-1263.69 927.808M-1252.65 921.079L-1205.06 628.014M-1263.69 927.808L-1331.66 969.251M-1263.69 927.808H-1534.58M-1331.66 969.251H-1623.63M-1331.66 969.251L-1416.01 1014.11M-463.266 243.746L-519.842 271.197L-520.354 271.446L-611.916 315.87L-653.342 335.968M-463.266 243.746L-399.918 325.373L-399.869 325.436L-255.266 511.763M-463.266 243.746L-434.697 198.711M-653.342 335.968L-622.744 249.022M-213.337 331.995L-241.372 315.115L-255.647 306.52L-255.9 306.368L-333.422 259.691M-213.337 331.995L-232 461.651M-213.337 331.995L-26.0789 395.035M-213.337 331.995L-190.882 315.466M-333.422 259.691L-332.394 260.093L-318.516 265.524M-333.422 259.691L-371.613 236.695L-371.983 236.473L-434.697 198.711M-434.697 198.711L-454.146 203.915M-434.697 198.711L-232 461.651M-454.146 203.915L-469.808 208.106M-454.146 203.915L-451.042 177.331M-469.808 208.106L-480.957 211.088M-469.808 208.106L-455.7 184.967L-455.537 184.703L-451.042 177.331M-480.957 211.088L-581.941 238.105M-480.957 211.088L-478.582 156.615M-581.941 238.105L-622.744 249.022M-581.941 238.105L-616.492 214.672M-622.744 249.022L-625.092 253.002M-266.126 185.379L-126.152 191.113M-266.126 185.379L-254.202 37.0985M-266.126 185.379L-370.979 230.61M-266.126 185.379L-284.245 208.66M-126.152 191.113L-110.321 191.378M-126.152 191.113L-106.955 194.483M-126.152 191.113L-138.024 281.848L-138.106 282.455L-138.794 287.732M89.6014 310.558L89.5908 310.544M89.6014 310.558L90.1593 310.435M89.6014 310.558L33.2754 322.933L33.0468 322.984L10.0147 328.045M89.5908 310.544L90.1593 310.435M89.5908 310.544L59.6402 272.817M59.6402 272.817L14.3594 215.783M59.6402 272.817L62.5621 160.473M14.3594 215.783L-71.1938 200.763M14.3594 215.783L10.0147 328.045M-71.1938 200.763L-106.955 194.483M-71.1938 200.763L-69.1642 109.919M-106.955 194.483L-110.321 191.378M-110.321 191.378L-142.415 156.964M-142.415 156.964L-254.202 37.0985M-142.415 156.964L-69.1642 109.919M-254.202 37.0985L-385.512 170.831M-385.512 170.831L-390.121 177.893M-385.512 170.831L-389.218 218.472M-390.121 177.893L-400.508 193.814M-390.121 177.893L-478.582 156.615M-400.508 193.814L-408.308 205.768M-400.508 193.814L-478.582 156.615M-408.308 205.768L-389.218 218.472M-408.308 205.768L-451.042 177.331M-370.979 230.61L-365.016 234.579M-370.979 230.61L-389.218 218.472M62.5621 160.473L-0.399565 136.309M62.5621 160.473L71.1044 62.9577M62.5621 160.473L153.725 296.469M-0.399565 136.309L-69.1642 109.919M-0.399565 136.309L71.1044 62.9577M-337.092 1008.5L18.1871 1174.06M-337.092 1008.5L-292.562 893.992M-337.092 1008.5L-383.782 1170.92M-337.092 1008.5L-682.512 1073.25M18.1871 1174.06L49.4056 1115.94M18.1871 1174.06L-16.1135 1237.91M18.1871 1174.06H365.171M49.4056 1115.94L-292.562 893.992M49.4056 1115.94L77.9331 1062.84M49.4056 1115.94H380.779M-292.562 893.992L-632.723 811.407M-383.782 1170.92L-16.1135 1237.91M-383.782 1170.92L-744.383 1237.91M-383.782 1170.92L-437.752 1295.86M128.206 969.251L104.108 1014.11M128.206 969.251H420.181M77.9331 1062.84L104.108 1014.11M77.9331 1062.84H395.043M104.108 1014.11H408.132M171.096 889.411H441.624M171.096 889.411L190.262 853.732M-49.5627 662.367L-58.2248 660.699M-49.5627 662.367L208.114 820.496M-49.5627 662.367L-4.06954 683.443M208.114 820.496L224.788 789.459M208.114 820.496L190.262 853.732M208.114 820.496H460.135M224.788 789.459L162.077 760.409M224.788 789.459L240.393 760.409M224.788 789.459H468.47M162.077 760.409L103.259 733.16M162.077 760.409H240.393M103.259 733.16L47.9799 707.553M103.259 733.16H255.03M47.9799 707.553L47.3405 707.257M47.9799 707.553H268.785M47.3405 707.257L-4.06954 683.443M47.3405 707.257L66.5313 683.443M-4.06954 683.443H66.5313M-58.2248 660.699L-112.924 650.165M-58.2248 660.699H84.8569M-112.924 650.165L-101.158 639.213M268.785 707.553L281.738 683.443M268.785 707.553H490.469M268.785 707.553L255.03 733.16M281.738 683.443H66.5313M281.738 683.443L293.956 660.699M281.738 683.443H496.947M66.5313 683.443L84.8569 660.699M316.422 618.879L326.771 599.61M316.422 618.879L305.499 639.213M316.422 618.879H514.288M316.422 618.879L118.603 618.821M326.771 599.61H134.08M326.771 599.61L336.595 581.323M326.771 599.61H519.462M134.08 599.61L118.603 618.821M134.08 599.61H-58.6084M134.08 599.61L148.817 581.323M118.603 618.821L101.586 618.815M354.811 547.41L363.275 531.659M354.811 547.41L345.929 563.946M354.811 547.41H533.483M354.811 547.41L326.619 511.766M363.275 531.659L335.591 516.636M363.275 531.659L371.344 516.636M363.275 531.659H537.714M335.591 516.636L326.619 511.766M335.591 516.636H371.344M326.619 511.766L319.123 502.292M386.414 488.582L393.459 475.467M386.414 488.582L379.049 502.292M386.414 488.582H549.284M386.414 488.582L308.279 488.582M393.459 475.467L400.206 462.906M393.459 475.467H297.906M393.459 475.467H552.808M297.906 475.467L308.279 488.582M297.906 475.467L287.97 462.906M412.879 439.315L418.837 428.224M412.879 439.315L406.676 450.865M412.879 439.315H562.517M412.879 439.315H269.307M418.837 428.224L424.564 417.566M418.837 428.224H272.18M418.837 428.224H565.496M272.18 428.224L266.304 435.516M272.18 428.224H260.536M272.18 428.224L280.769 417.566M266.304 435.516L269.307 439.315M266.304 435.516L260.536 428.224M296.978 397.451L289.029 407.315M296.978 397.451H435.37M296.978 397.451L302.982 300.603M296.978 397.451H236.196M435.37 397.451L440.473 387.95M435.37 397.451L430.07 407.315M435.37 397.451L573.761 397.451M440.473 387.95L445.392 378.793M440.473 387.95L302.982 300.603M440.473 387.95H576.313M302.982 300.603L320.427 310.18M302.982 300.603L246.125 298.664M157.289 297.694L166.473 295.951M157.289 297.694L155.934 295.983M157.289 297.694L165.529 308.113M166.473 295.951L202.278 297.17M166.473 295.951L165.529 308.113M202.278 297.17L246.125 298.664M202.278 297.17L204.218 272.239M246.125 298.664L227.332 286.814L227 286.606L204.218 272.239M454.713 361.438L459.134 353.208M454.713 361.438L450.137 369.962M454.713 361.438H583.433M454.713 361.438H413.785M459.134 353.208L463.407 345.257M459.134 353.208H398.794M459.134 353.208H585.645M398.794 353.208L380.874 343.368M398.794 353.208L413.785 361.438M1059.13 1174.06H1406.12M1059.13 1174.06L1043.53 1115.94M1059.13 1174.06H712.153M1059.13 1174.06L1076.29 1237.91M1406.12 1174.06L1374.9 1115.94M1406.12 1174.06L1440.42 1237.91M1406.12 1174.06L1628.28 1121.46M1374.9 1115.94L1346.37 1062.84M1374.9 1115.94L1717.8 874.443M1374.9 1115.94H1043.53M1346.37 1062.84L1320.2 1014.11M1346.37 1062.84L1545.03 797.482M1346.37 1062.84H1029.26M1320.2 1014.11L1296.1 969.251M1320.2 1014.11H1016.18M1320.2 1014.11L1366.76 969.251M1717.8 874.443L1684.03 611.819M1717.8 874.443L1737.92 984.814M1717.8 874.443L1811.27 893.403M1043.53 1115.94H712.153M1043.53 1115.94L1029.26 1062.84M1004.12 969.251H1296.1M1004.12 969.251L992.995 927.808M1004.12 969.251H712.153M1004.12 969.251L1016.18 1014.11M1296.1 969.251L1273.84 927.808M1296.1 969.251H1366.76M1273.84 927.808H992.995M1273.84 927.808L1253.21 889.411M1273.84 927.808H1409.77M992.995 927.808H712.153M992.995 927.808L982.681 889.411M964.171 820.496H1216.19M964.171 820.496L955.835 789.459M964.171 820.496H712.153M964.171 820.496L973.099 853.732M1216.19 820.496L1199.52 789.459M1216.19 820.496L1234.04 853.732M1216.19 820.496L1268.34 820.496M1199.52 789.459H955.835M1199.52 789.459L1183.91 760.409M1199.52 789.459L1300.37 789.459M955.835 789.459H712.153M955.835 789.459L948.032 760.409M933.836 707.553H1155.52M933.836 707.553L927.359 683.443M933.836 707.553H712.153M933.836 707.553L940.714 733.16M1155.52 707.553L1142.57 683.443M1155.52 707.553L1169.28 733.16M1155.52 707.553H1377.2M1142.57 683.443H927.359M1142.57 683.443L1130.35 660.699M1142.57 683.443H1357.77M927.359 683.443H712.153M927.359 683.443L921.251 660.699M910.018 618.879H1107.88M910.018 618.879L904.844 599.61M910.018 618.879H712.153M910.018 618.879L915.481 639.213M1107.88 618.879L1097.53 599.61M1107.88 618.879L1118.81 639.213M1107.88 618.879H1305.75M1097.53 599.61H904.844M1097.53 599.61L1087.71 581.323M1097.53 599.61H1290.23M904.844 599.61H712.153M904.844 599.61L899.93 581.323M890.822 547.41H1069.49M890.822 547.41L886.591 531.659M890.822 547.41H712.153M890.822 547.41L895.265 563.946M1069.49 547.41L1097.6 540.601M1069.49 547.41L1061.03 531.659M1069.49 547.41L1078.38 563.946M1097.6 540.601L1170.93 451.564L1171.51 450.865L1243.14 363.889M1097.6 540.601L1078.38 563.946M1061.03 531.659L1052.96 516.636M1061.03 531.659L1106.48 476.009M1061.03 531.659H886.591M1052.96 516.636L1045.26 502.292M1052.96 516.636L1071.86 502.292M1052.96 516.636H882.557M1626.57 249.224L1596.21 240.46M1626.57 249.224L1669.35 164.868M1626.57 249.224L1615.09 271.842M1596.21 240.46L1549.5 248.364M1596.21 240.46L1615.09 271.842M1549.5 248.364L1546.69 248.839M1549.5 248.364L1544.2 246.734M1546.69 248.839L1544.2 246.734M1546.69 248.839L1446.53 265.786M1446.53 265.786L1418.42 270.544M1446.53 265.786L1439.78 158.337M1418.42 270.544L1397.36 275.4L1397.25 275.424M1418.42 270.544L1428.7 381.86L1428.78 382.767L1431.39 411.032M1397.25 275.424L1372.1 281.221M1397.25 275.424L1371.05 244.136M1372.1 281.221L1261.37 306.745M1372.1 281.221L1371.05 244.136M1261.37 306.745L1260.21 307.012L1240.85 311.475M1261.37 306.745L1278.29 297.083M1240.85 311.475L1230.17 324.553M1240.85 311.475L1243.14 363.889M1230.17 324.553L1204.91 355.481M1230.17 324.553L1204.16 339.401M1204.91 355.481L1127.21 450.631L1127.01 450.865L1106.92 475.467L1106.48 476.009M1204.91 355.481L1204.16 339.401M1106.48 476.009L1071.86 502.292M886.591 531.659H712.153M886.591 531.659L882.557 516.636M875.021 488.582L871.498 475.467M875.021 488.582L878.704 502.292M875.021 488.582H1037.89M875.021 488.582L712.153 488.582M1037.89 488.582L1030.85 475.467M1037.89 488.582L1038.87 487.707L1052.51 475.467M1037.89 488.582L1045.26 502.292M1030.85 475.467L1024.1 462.906M1030.85 475.467H1052.51M1030.85 475.467H871.498M871.498 475.467L868.124 462.906M871.498 475.467H712.153M861.788 439.315L858.809 428.224M861.788 439.315L864.892 450.865M861.788 439.315H1011.43M861.788 439.315H712.153M1011.43 439.315L1005.47 428.224M1011.43 439.315L1017.63 450.865M1011.43 439.315L1094.04 438.2M1094.04 438.2L1080.4 450.44L1079.93 450.865M1094.04 438.2L1158.98 379.935M1005.47 428.224L999.742 417.566M1005.47 428.224L1155.2 277.723M1005.47 428.224H858.809M999.742 417.566L994.235 407.315M999.742 417.566L1149.08 140.984M999.742 417.566H855.947M994.235 407.315L988.936 397.451M994.235 407.315L1083.64 232.363M994.235 407.315H853.194M988.936 397.451L994.388 387.95M988.936 397.451L983.832 387.95M988.936 397.451H850.544M1155.2 277.723L1149.08 140.984M1155.2 277.723L1158.98 379.935M1155.2 277.723L1278.29 297.083M858.809 428.224L855.947 417.566M858.809 428.224H712.153M850.544 397.451L847.992 387.95M850.544 397.451L853.194 407.315M850.544 397.451H712.153M1083.64 232.363L1140.92 120.29M1027.56 330.132L1023.29 337.569M1023.29 337.569L1018.88 345.257M1023.29 337.569H956.768M1018.88 345.257L1014.32 353.208M1018.88 345.257H960.898M1014.32 353.208L1009.6 361.438M1014.32 353.208H965.169M1009.6 361.438L1004.71 369.962M1009.6 361.438H969.593M1004.71 369.962L999.641 378.793M1004.71 369.962H974.169M999.641 378.793L994.388 387.95M999.641 378.793H978.913M994.388 387.95H983.832M983.832 387.95L978.913 378.793M983.832 387.95H847.992M847.992 387.95L845.533 378.793M847.992 387.95H712.153M840.873 361.438L838.661 353.208M840.873 361.438L843.161 369.962M840.873 361.438H969.593M840.873 361.438H712.153M969.593 361.438L965.169 353.208M969.593 361.438L974.169 369.962M965.169 353.208L960.898 345.257M965.169 353.208H838.661M838.661 353.208L836.525 345.257M838.661 353.208H712.153M2376.62 1020.43L2378.65 1022.99M2376.62 1020.43L2380.82 1021.35M2376.62 1020.43L2310.35 896.21M2376.62 1020.43L2063.75 945.192M2378.65 1022.99L2380.82 1021.35M2378.65 1022.99L2258.91 1113.41M2402.71 859.187L2151.59 784.904M2402.71 859.187L2435.51 867.363M2402.71 859.187L2395.82 290.136L2395.82 289.973L2393.88 129.845M2402.71 859.187L2410.47 873.134M2151.59 784.904L2125.36 766.51M2151.59 784.904L2310.35 896.21M2075.04 440.847L2093.81 437.818M2075.04 440.847L2039.07 414.63M2075.04 440.847L1995.31 453.714L1923.06 465.376M2039.07 414.63L1956.95 354.769M2039.07 414.63L2135.45 361.996L2135.85 361.774L2154.6 351.537M1956.95 354.769L1915.73 324.713M1956.95 354.769L1947.82 275.795M1915.73 324.713L1847.34 311.715L1845.92 311.443L1771.13 297.226M1915.73 324.713L1795.62 489.627M1915.73 324.713L1923.06 465.376M1771.13 297.226L1721.39 287.77M1771.13 297.226L1770.56 290.791M1721.39 287.77L1716 275.041M1721.39 287.77L1689.95 281.792M1689.95 281.792L1692.58 358.511L1692.58 358.654L1698.23 523.7M1689.95 281.792L1662.23 324.355L1661.53 325.425L1636.24 364.248L1635.96 364.677L1482.91 599.61M1689.95 281.792L1669.35 164.868M1698.23 523.7L1795.62 489.627M1698.23 523.7L1504.73 591.397M1919.02 264.432L1919.29 264.538L1947.82 275.795M1919.02 264.432L1777.43 289.571M1919.02 264.432L1896.27 166.629M1919.02 264.432L1960.93 275.247M1777.43 289.571L1770.56 290.791M1777.43 289.571L1896.27 166.629M1770.56 290.791L1742.58 282.712M1770.56 290.791L1864.15 282.873L1865.46 282.763L1947.82 275.795M1742.58 282.712L1751.47 272.238M1742.58 282.712L1716 275.041M1716 275.041L1714.39 271.238M1615.09 271.842L1611.63 278.67M2196.35 219.597L2300.76 225.418M2196.35 219.597L2174.95 46.0644M2196.35 219.597L2080.19 182.205M2196.35 219.597L2203.42 308.822L2203.44 309.072L2203.45 309.304L2203.84 314.154L2203.86 314.443L2204.62 324.084M2300.76 225.418L2354.49 170.277M2300.76 225.418L2226.74 301.389L2226.52 301.614L2225.91 302.237L2216.53 311.869L2216.23 312.172L2214.92 313.512L2214.91 313.527L2204.62 324.084M2661.44 121.425L2497.68 74.7589M2661.44 121.425L2797.66 91.8602M2661.44 121.425L2585.15 137.986M2497.68 74.7589L2339.18 23.2089M2497.68 74.7589L2529.72 177.202M2339.18 23.2089L2174.95 46.0644M2339.18 23.2089L2354.49 170.277M2174.95 46.0644L2080.19 182.205M2080.19 182.205L2034.6 167.531M2034.6 167.531L1871.23 131.162M2034.6 167.531L2057.69 271.205M1871.23 131.162L1751.47 272.238M1871.23 131.162L1896.27 166.629M1751.47 272.238L1714.39 271.238M3155.06 1L3170.83 192.449M3155.06 1L3191.71 137.857M3155.06 1L3016.22 30.6977M3170.83 192.449L3168.89 192.439M3170.83 192.449L3206.38 192.648M3231.36 109.564L3298.78 201.079L3298.45 200.959M3231.36 109.564L3191.71 137.857M3231.36 109.564L3237.52 192.824M3231.36 109.564L3263.7 192.97M3191.71 137.857L3206.38 192.648M3016.22 30.6977L2898.18 119.255M3016.22 30.6977L2867.07 110.775M3016.22 30.6977L3036.55 143.535M2898.18 119.255L3000.41 147.116L3023.27 163.473M2898.18 119.255L2867.07 110.775M3206.38 192.648L3237.52 192.824M2867.07 110.775L2797.66 91.8602M3168.89 192.439L3142.15 117.963M3168.89 192.439L3144.77 192.303M3142.15 117.963L3096.29 53.8913L3036.55 143.535M3142.15 117.963L3052.66 184.514M3142.15 117.963L3144.77 192.303M3036.55 143.535L3023.27 163.473M3023.27 163.473L3025.83 165.306L3028.75 167.393L3042.64 177.343L3043.18 177.723L3052.66 184.514M2529.72 177.202L2533.43 176.215M2529.72 177.202L2529.74 177.44L2529.86 178.854M2529.72 177.202L2429.15 207.852M2533.43 176.215L2585.15 137.986M2533.43 176.215L2529.86 178.854M3062.91 191.845L2834.26 343.894M3062.91 191.845L3144.77 192.303M3062.91 191.845L3052.66 184.514M3062.91 191.845L3075.56 568.272M2834.26 343.894L2841.44 425.237M2834.26 343.894L2831.36 323.908L2831.22 322.933L2797.66 91.8602M2834.26 343.894L2644.5 428.763M2841.44 425.237L3014.44 502.771M2841.44 425.237L2769.12 392.825M3276.47 193.042L3263.7 192.97M3276.47 193.042L3282.17 335.339L3282.18 335.579L3283.16 359.867L3283.16 360.056L3292.24 586.572L3292.25 586.798L3295.75 674.247M3276.47 193.042L3298.45 200.959M3263.7 192.97L3237.52 192.824M2585.15 137.986L2601.85 318.707L2601.87 318.927L2607.38 378.455M2529.86 178.854L2444.55 241.912M2444.55 241.912L2499.04 362.44L2499.45 363.36L2504.12 373.676L2504.93 375.467L2530.6 432.246M2444.55 241.912L2429.15 207.852M2644.5 428.763L2696.37 499.069M2644.5 428.763L2607.38 378.455M3295.75 674.247L3179.08 679.207M3295.75 674.247L3315.72 682.93M3295.75 674.247L3315.72 659.384M1947.82 275.795L1960.93 275.247M1960.93 275.247L1961.41 275.227L2052.53 271.42M2052.53 271.42L2057.69 271.205M2052.53 271.42L1991.13 230.247L1990.22 229.635L1896.27 166.629M2057.69 271.205L2124.82 268.401M2124.82 268.401L2131.11 278.926L2131.11 278.929L2156.92 322.131L2157.09 322.401L2157.52 323.123L2157.63 323.313L2166.48 338.129L2166.7 338.485L2175.78 353.688M2124.82 268.401L2144.99 324.709L2145.81 326.988L2146.38 328.59L2154.6 351.537M2175.78 353.688L2204.62 324.084M2175.78 353.688L2165.41 364.329M2154.6 351.537L2165.41 364.329M2154.6 351.537L2156.88 373.09M1795.62 489.627L1815.17 482.789M1923.06 465.376L1815.17 482.789M3223.72 727.058L3205.52 707.553M3223.72 727.058L3278.54 707.553M3223.72 727.058L3052.03 788.158M3205.52 707.553L3179.08 679.207M3205.52 707.553H3278.54M3179.08 679.207L3075.56 568.272M3075.56 568.272L3014.44 502.771M3014.44 502.771L3020.32 547.41L3020.34 547.611L3052.03 788.158M2769.12 392.825L2768.61 393.575L2768.24 394.112L2696.37 499.069M2769.12 392.825L2775.55 428.224L2775.62 428.632L2794.5 532.583L2794.63 533.324L2818.45 664.515M2696.37 499.069L2732.04 547.41L2732.08 547.456L2818.45 664.515M2435.51 867.363L2410.47 873.134M2435.51 867.363L2636.85 820.96M2627.66 646.931L2530.6 432.246M2627.66 646.931L2582.82 345.173M2627.66 646.931L2657.37 812.514M2627.66 646.931L2795.83 810.882M2530.6 432.246L2555.88 390.092L2557.7 387.054L2557.84 386.821L2582.82 345.173M2429.15 207.852L2393.88 129.845M2393.88 129.845L2354.49 170.277M2165.41 364.329L2156.88 373.09M2156.88 373.09L2151.08 379.043L2150.82 379.305L2093.81 437.818M2093.81 437.818L2125.36 766.51M1815.17 482.789L1822.44 641.88M1815.17 482.789L1717.48 619.084M1504.73 591.397L1489.72 605.943M1504.73 591.397L1519.45 822.133M1489.72 605.943L1482.91 599.61M1489.72 605.943L1476.37 618.879M1476.37 618.879L1455.39 639.213M1476.37 618.879L1305.75 618.879M1455.39 639.213L1433.54 660.389M1455.39 639.213L1322.14 639.213M1433.54 660.389L1409.75 683.443M1433.54 660.389L1339.45 660.699M1409.75 683.443L1384.88 707.553M1409.75 683.443H1357.77M1384.88 707.553L1380.57 711.728M1384.88 707.553L1377.2 707.553M1380.57 711.728L1377.2 707.553M1380.57 711.728L1358.45 733.16M1358.45 733.16L1350.71 740.669M1358.45 733.16L1169.28 733.16M1350.71 740.669L1300.37 789.459M1350.71 740.669L1183.91 760.409M1300.37 789.459L1268.34 820.496M1268.34 820.496L1234.04 853.732M1234.04 853.732L1253.21 889.411M1234.04 853.732L973.099 853.732M2410.47 873.134L2310.35 896.21M2582.82 345.173L2607.38 378.455M2818.45 664.515L2857.63 816.6M2818.45 664.515L3000.29 806.57M3278.54 707.553L3292.81 702.474L3315.72 703.723M3052.03 788.158L3000.29 806.57M3000.29 806.57L2957.55 821.782M2957.55 821.782L2960.8 826.144M2957.55 821.782L2912.39 821.666M2912.39 821.666L2857.63 816.6M2912.39 821.666L2960.8 826.144M2636.85 820.96L2638.3 826.914M2636.85 820.96L2646.15 820.984M2638.3 826.914L2646.15 820.984M2638.3 826.914L2380.82 1021.35M2335.79 1309L1932.06 1256.6L1889.93 795.358M2335.79 1309L2495.72 1123.16L2583.11 1029.98M2335.79 1309H2866.69M2335.79 1309L2258.91 1113.41M2335.79 1309L1932.07 1256.94L1767.23 1309M2335.79 1309L2495.72 1123.49L2866.69 1309M2335.79 1309H1767.23M2583.11 1029.98L2678.65 928.128L2678.95 927.808L2679.15 927.595L2749.97 852.097M2583.11 1029.98L2866.69 1309M2749.97 852.097L2789.2 810.27M2749.97 852.097L3038.84 1054.48M2789.2 810.27L2795.83 810.882M2789.2 810.27L2674.74 799.394L2657.37 812.514M2795.83 810.882L2857.63 816.6M2960.8 826.144L3200.13 848.287M3200.13 848.287L3200.52 848.915M3200.13 848.287L3038.84 1054.48M3200.52 848.915L3315.72 1031M3200.52 848.915L3315.72 773.809M3038.84 1054.48L3280.72 1214.56M3038.84 1054.48L2866.69 1309M3280.72 1214.56L3261.09 1237.91M3280.72 1214.56L3315.72 1237.73M3316 1237.91L3315.72 1237.73M3316 1237.91V1309M3316 1237.91H3315.72M2866.69 1309L3261.09 1237.91M2866.69 1309L3315.72 1238.25V1237.91M2866.69 1309H3316M3261.09 1237.91H3315.72M974.169 369.962L978.913 378.793M974.169 369.962H843.161M978.913 378.793H845.533M1149.08 140.984L1294.29 157.151M1149.08 140.984L1140.92 120.29M855.947 417.566L853.194 407.315M855.947 417.566H712.153M1544.2 246.734L1439.78 158.337M1439.78 158.337L1364.27 157.721M1364.27 157.721L1294.29 157.151M1364.27 157.721L1273.1 110.218M1294.29 157.151L1282.91 155.62M1294.29 157.151L1301.32 283.942M1140.92 120.29L1273.1 110.218M1140.92 120.29L1282.91 155.62M1273.1 110.218L1282.91 155.62M1158.98 379.935L1160.26 378.793L1204.16 339.401M1278.29 297.083L1301.32 283.942M1024.1 462.906L1017.63 450.865M1024.1 462.906H1066.51M1024.1 462.906H868.124M1052.51 475.467L1052.87 475.146L1066.51 462.906M1017.63 450.865H864.892M1017.63 450.865H1079.93M1079.93 450.865L1066.51 462.906M1371.05 244.136L1301.32 283.942M1045.26 502.292H1071.86M1045.26 502.292H878.704M1431.39 411.032L1611.63 278.67M1431.39 411.032L1447.39 482.503M1431.39 411.032L1387.62 433.343M1611.63 278.67L1607.69 286.44L1607.67 286.476L1601.91 297.838L1601.84 297.974L1589.23 322.843L1589.18 322.933L1571.11 358.569M1087.71 581.323L1277.37 510.163M1087.71 581.323L1078.38 563.946M1087.71 581.323H899.93M1290.23 599.61L1277.37 510.163M1290.23 599.61L1305.75 618.879M1290.23 599.61H1482.91M1277.37 510.163L1267.38 334.454M1277.37 510.163L1463.65 570.451M1447.39 482.503L1447.79 482.095L1571.11 358.569M1447.39 482.503L1387.62 433.343M1447.39 482.503L1463.65 570.451M1387.62 433.343L1290.83 353.742L1290.18 353.208L1267.38 334.454M1267.38 334.454L1243.14 363.889M1078.38 563.946H895.265M895.265 563.946H712.153M895.265 563.946L899.93 581.323M1305.75 618.879L1322.14 639.213M1482.91 599.61L1463.65 570.451M1463.65 570.451L1571.11 358.569M1714.39 271.238L1669.35 164.868M1118.81 639.213H1322.14M1118.81 639.213H915.481M1118.81 639.213L1130.35 660.699M1322.14 639.213L1339.45 660.699M1130.35 660.699H1339.45M1130.35 660.699H921.251M1357.77 683.443L1339.45 660.699M1357.77 683.443L1377.2 707.553M915.481 639.213H712.153M915.481 639.213L921.251 660.699M921.251 660.699H712.153M1169.28 733.16L1183.91 760.409M1169.28 733.16H940.714M1183.91 760.409H948.032M1253.21 889.411H1449.62M1253.21 889.411H982.681M1409.77 927.808L1366.76 969.251M1409.77 927.808L1449.62 889.411M1449.62 889.411L1519.45 822.133M1822.44 641.88L1717.48 619.084M1822.44 641.88L2003.77 681.264M1717.48 619.084L1684.03 611.819M1684.03 611.819L1593.28 733.036L1593.19 733.16L1545.03 797.482M2003.77 681.264L2125.36 766.51M2003.77 681.264L2046.85 930.625M2646.15 820.984L2657.37 812.514M1545.03 797.482L1519.45 822.133M1737.92 984.814L1811.27 893.403M1737.92 984.814L1628.28 1121.46M1811.27 893.403L1811.77 892.771L1889.93 795.358M1440.42 1237.91L1478.29 1308.41M1440.42 1237.91H1076.29M1440.42 1237.91L1595.84 1161.9M1628.28 1121.46L1595.84 1161.9M1889.93 795.358L1918.04 819.586L1919.09 820.496L2046.85 930.625M2046.85 930.625L2063.75 945.192M2063.75 945.192L2258.91 1113.41M1595.84 1161.9L1478.29 1308.41M1478.29 1308.41H1095.22M1095.22 1308.41H712.153M1095.22 1308.41L1076.29 1237.91M583.433 361.438L585.645 353.208M583.433 361.438L581.145 369.962M583.433 361.438H712.153M585.645 353.208L587.78 345.257M585.645 353.208H712.153M463.407 345.257H587.78M463.407 345.257L380.874 343.368M581.145 369.962L578.772 378.793M581.145 369.962H712.153M581.145 369.962H450.137M712.153 361.438L712.153 353.208M712.153 361.438L712.153 369.962M712.153 353.208V345.257M587.78 345.257L589.845 337.569M587.78 345.257H712.153M712.153 369.962L712.153 378.793M712.153 369.962H843.161M843.161 369.962L845.533 378.793M836.525 345.257L834.46 337.569M836.525 345.257H712.153M836.525 345.257H960.898M712.153 345.257V337.569M320.427 310.18L339.133 320.452L339.391 320.593M320.427 310.18L209.412 117.39M339.391 320.593L380.874 343.368M339.391 320.593L342.292 164.68M413.785 361.438L429.308 369.962M429.308 369.962L445.392 378.793M429.308 369.962H450.137M445.392 378.793L450.137 369.962M445.392 378.793H578.772M576.313 387.95L578.772 378.793M576.313 387.95L573.761 397.451M576.313 387.95H712.153M578.772 378.793H712.153M712.153 378.793V387.95M712.153 378.793H845.533M573.761 397.451L571.111 407.315M573.761 397.451L712.153 397.451M712.153 387.95L712.153 397.451M712.153 397.451V407.315M430.07 407.315L424.564 417.566M430.07 407.315H571.111M430.07 407.315H289.029M571.111 407.315L568.358 417.566M571.111 407.315H712.153M712.153 407.315L712.153 417.566M712.153 407.315H853.194M424.564 417.566H568.358M424.564 417.566H280.769M565.496 428.224L568.358 417.566M565.496 428.224L562.517 439.315M565.496 428.224H712.153M568.358 417.566H712.153M712.153 417.566V428.224M289.029 407.315L280.769 417.566M289.029 407.315H243.998M280.769 417.566H252.105M562.517 439.315L559.413 450.865M562.517 439.315H712.153M712.153 428.224L712.153 439.315M712.153 439.315V450.865M559.413 450.865L556.181 462.906M559.413 450.865H712.153M559.413 450.865H406.676M712.153 450.865L712.153 462.906M712.153 450.865H864.892M864.892 450.865L868.124 462.906M400.206 462.906L406.676 450.865M400.206 462.906H556.181M400.206 462.906H287.97M552.808 475.467L556.181 462.906M552.808 475.467L549.284 488.582M552.808 475.467H712.153M556.181 462.906H712.153M712.153 462.906V475.467M712.153 462.906H868.124M406.676 450.865H278.446M287.97 462.906L278.446 450.865M269.307 439.315L278.446 450.865M549.284 488.582L545.601 502.292M549.284 488.582H712.153M712.153 475.467L712.153 488.582M712.153 488.582V502.292M545.601 502.292L545.511 502.623L541.749 516.636M545.601 502.292H712.153M545.601 502.292H379.049M712.153 502.292L712.153 516.636M712.153 502.292H878.704M878.704 502.292L878.794 502.623L882.557 516.636M371.344 516.636H541.749M371.344 516.636L379.049 502.292M537.714 531.659L541.749 516.636M537.714 531.659L533.483 547.41M537.714 531.659H712.153M541.749 516.636H712.153M712.153 516.636V531.659M712.153 516.636H882.557M379.049 502.292H319.123M308.279 488.582L319.123 502.292M533.483 547.41L529.041 563.946M533.483 547.41H712.153M712.153 531.659L712.153 547.41M712.153 547.41V563.946M345.929 563.946H529.041M345.929 563.946L155.934 295.983M345.929 563.946L336.595 581.323M529.041 563.946L524.375 581.323M529.041 563.946H712.153M712.153 563.946L712.153 581.323M336.595 581.323H524.375M336.595 581.323H148.817M519.462 599.61L524.375 581.323M519.462 599.61L514.288 618.879M519.462 599.61H712.153M524.375 581.323H712.153M712.153 581.323V599.61M712.153 581.323H899.93M155.934 295.983L153.725 296.469M155.934 295.983L148.817 581.323M155.934 295.983L-26.0789 395.035M148.817 581.323H-38.9635M514.288 618.879L508.824 639.213M514.288 618.879H712.153M712.153 599.61L712.153 618.879M712.153 618.879V639.213M305.499 639.213H508.824M305.499 639.213L101.586 618.815M305.499 639.213L293.956 660.699M508.824 639.213L503.054 660.699M508.824 639.213H712.153M712.153 639.213L712.153 660.699M293.956 660.699H503.054M293.956 660.699H84.8569M496.947 683.443L503.054 660.699M496.947 683.443L490.469 707.553M496.947 683.443H712.153M503.054 660.699H712.153M712.153 660.699V683.443M101.586 618.815L100.949 618.879M101.586 618.815L84.8569 660.699M490.469 707.553L483.591 733.16M490.469 707.553H712.153M712.153 683.443L712.153 707.553M712.153 707.553V733.16M483.591 733.16L476.273 760.409M483.591 733.16H712.153M483.591 733.16H255.03M712.153 733.16L712.153 760.409M712.153 733.16H940.714M940.714 733.16L948.032 760.409M240.393 760.409H476.273M240.393 760.409L255.03 733.16M468.47 789.459L476.273 760.409M468.47 789.459L460.135 820.496M468.47 789.459H712.153M476.273 760.409H712.153M712.153 760.409V789.459M712.153 760.409H948.032M460.135 820.496L451.206 853.732M460.135 820.496H712.153M712.153 789.459L712.153 820.496M712.153 820.496V853.732M190.262 853.732H451.206M451.206 853.732L441.624 889.411M451.206 853.732H712.153M712.153 853.732L712.153 889.411M712.153 853.732H973.099M973.099 853.732L982.681 889.411M431.311 927.808L441.624 889.411M431.311 927.808L420.181 969.251M431.311 927.808H712.153M441.624 889.411H712.153M712.153 889.411V927.808M712.153 889.411H982.681M420.181 969.251L408.132 1014.11M420.181 969.251H712.153M712.153 927.808L712.153 969.251M712.153 969.251V1014.11M408.132 1014.11L395.043 1062.84M408.132 1014.11H712.153M712.153 1014.11L712.153 1062.84M712.153 1014.11H1016.18M1016.18 1014.11L1029.26 1062.84M380.779 1115.94L395.043 1062.84M380.779 1115.94L365.171 1174.06M380.779 1115.94H712.153M395.043 1062.84H712.153M-632.723 811.407L-682.512 1073.25M712.153 1062.84V1115.94M712.153 1062.84H1029.26M365.171 1174.06L348.018 1237.91M365.171 1174.06H712.153M712.153 1115.94L712.153 1174.06M712.153 1174.06V1237.91M-16.1135 1237.91H348.018M-16.1135 1237.91L-53.9837 1308.41M348.018 1237.91L329.083 1308.41M348.018 1237.91H712.153M712.153 1237.91L712.153 1308.41M712.153 1237.91H1076.29M329.083 1308.41H-53.9837M329.083 1308.41H712.153M-53.9837 1308.41L-437.752 1295.86M-437.752 1295.86L-820.12 1308.41M-437.752 1295.86L-442.853 1309M71.1044 62.9577L209.412 117.39M71.1044 62.9577L204.218 272.239M342.292 164.68L209.412 117.39M209.412 117.39L204.218 272.239M153.725 296.469L90.1593 310.435M-138.794 287.732L-141.58 286.218L-141.865 286.062L-284.245 208.66M-138.794 287.732L-143.169 319.92M-138.794 287.732L-93.9675 324.514M-143.169 319.92L-93.9675 324.514M-143.169 319.92L-170.355 317.383L-170.407 317.377L-190.882 315.466M260.536 428.224L252.105 417.566M252.105 417.566L243.998 407.315M236.196 397.451L243.998 407.315M236.196 397.451L165.529 308.113M10.0147 328.045L-9.70925 332.379M-9.70925 332.379L-75.4296 326.244L-93.9675 324.514M-9.70925 332.379L-26.0789 395.035M-190.882 315.466L-299.902 272.808M-299.902 272.808L-318.516 265.524M-299.902 272.808L-284.245 208.66M-318.516 265.524L-347.025 246.553L-348.007 245.898L-365.016 234.579M-255.266 511.763L-232 461.651M-255.266 511.763L-58.6084 599.61M-232 461.651L-38.9635 581.323M-38.9635 581.323L-58.6084 599.61M-38.9635 581.323L-26.0789 395.035M-58.6084 599.61L-79.3119 618.879M-79.3119 618.879H100.949M-79.3119 618.879L-101.158 639.213M100.949 618.879L-101.158 639.213M-776.284 431.789L-855.528 449.07M-855.528 449.07L-883.117 455.086M-883.117 455.086L-920.108 474.956M-682.512 1073.25L-1032.96 1051.88M-682.512 1073.25L-744.383 1237.91M-1472.65 1237.91L-1586.26 1308.41M-1472.65 1237.91L-1110.53 1214.99M-1472.65 1237.91H-1836.78M-1032.96 1051.88L-1110.53 1214.99M-1110.53 1214.99L-1203.19 1308.41M-1110.53 1214.99L-744.383 1237.91M-744.383 1237.91L-820.12 1308.41M-1203.19 1308.41H-1586.26M-1203.19 1308.41H-820.12M-1586.26 1308.41L-1840.87 1240.09M-1836.78 1237.91L-1840.87 1240.09M-1836.78 1237.91H-1848.98M-478.582 156.615L-612.052 137.448M-612.052 137.448L-616.492 214.672M-727.341 182.995L-729.741 181.808M-727.341 182.995L-709.309 191.925L-654.923 233.044M-616.492 214.672L-621.052 211.579M-621.052 211.579L-654.923 233.044M-621.052 211.579L-625.092 253.002M-654.923 233.044L-626.15 254.797M-365.016 234.579L-284.245 208.66M-626.15 254.797L-625.092 253.002M-626.15 254.797L-645.621 287.838M-729.741 181.808L-736.001 178.708M-736.001 178.708L-738.729 177.357M-738.729 177.357L-741.986 175.744M-741.986 175.744L-745.321 179.097M-741.986 175.744L-755.969 247.112M-741.986 175.744L-646.084 287.302L-645.621 287.838M-745.321 179.097L-747.81 181.598M-745.321 179.097L-765.519 184.428M-747.81 181.598L-752.707 186.519M-747.81 181.598L-761.832 185.029M-752.707 186.519L-759.645 193.49M-752.707 186.519L-761.832 185.029M-759.645 193.49L-775.258 209.181M-759.645 193.49L-768.288 183.977M-775.258 209.181L-779.355 213.3M-775.258 209.181L-768.288 183.977M-779.355 213.3L-755.969 247.112M-779.355 213.3L-785.395 204.566M-755.969 247.112L-703.373 323.154M-645.621 287.838L-652.025 298.701M-703.373 323.154L-703.67 323.296L-715.449 328.904L-715.596 328.973M-703.373 323.154L-652.025 298.701M-785.395 204.566L-793.54 192.79M-785.395 204.566L-771.033 187.282M-793.54 192.79L-794.103 191.975M-793.54 192.79L-771.033 187.282M-794.103 191.975L-793.804 191.894L-769.545 185.491M-794.103 191.975L-893.213 48.6833M-893.213 48.6833L-917.203 82.3793M-893.213 48.6833L-715.596 328.973M-917.203 82.3793L-970.515 157.255M-917.203 82.3793L-965.933 20.1019M-970.515 157.255L-965.933 20.1019M-920.108 474.956L-970.604 502.08M-1135.45 371.46L-1147.06 452.238M-1135.45 371.46L-1023.13 479.776M-1147.06 452.238L-1026.1 478.514M-1147.06 452.238L-1188.97 443.135M-1321.15 318.297L-1325.33 317.1M-1321.15 318.297L-1314.41 202.538M-1325.33 317.1L-1372.51 368.267L-1475.13 479.561M-1325.33 317.1L-1348.92 519.15M-1475.13 479.561L-1488.95 475.226M-1475.13 479.561L-1348.92 519.15M-1188.97 443.135L-1307.73 556.862L-1308.83 557.914L-1322.06 570.584L-1344.46 592.036M-1188.97 443.135L-1332.08 524.435M-1188.97 443.135L-1229.22 594.399M-1344.46 592.036L-1353.46 585.845M-1344.46 592.036L-1292.79 627.594M-1026.1 478.514L-1023.13 479.776M-1026.1 478.514L-1229.22 594.399M-1026.1 478.514L-1038.78 538.698M-1332.08 524.435L-1348.92 519.15M-1332.08 524.435L-1353.46 585.845M-1488.95 475.226L-1496.18 470.215M-1488.95 475.226L-1514.36 467.256M-1514.36 467.256L-1543.46 458.129M-1514.36 467.256L-1532.08 445.318M-1543.46 458.129L-1543.63 457.892L-1573.61 415.805L-1573.92 415.357L-1574.23 414.937L-1595.35 385.28L-1626.88 341.011L-1627.17 340.601L-1636.31 327.772L-1705.46 230.695M-1543.46 458.129L-1545.15 459.485M-1543.46 458.129L-1543.85 459.903M-1353.46 585.845L-1530.07 464.312M-970.604 502.08L-986.958 495.136L-987.453 494.927L-1023.13 479.776M-970.604 502.08L-1038.78 538.698M-1229.22 594.399L-1276.7 621.485M-1276.7 621.485L-1290.35 629.275M-1276.7 621.485L-1292.79 627.594M-1290.35 629.275L-1292.79 627.594M-1290.35 629.275L-1306.36 659.761M-1290.35 629.275L-1235.48 637.548M-1530.07 464.312L-1543.85 459.903M-1530.07 464.312L-1575.68 459.925L-1576.42 459.854L-1603.19 457.279M-1543.85 459.903L-1544.91 459.561L-1545.15 459.485M-1545.15 459.485L-1546.66 459.004L-1589.62 445.254L-1590.01 445.131L-1714.99 405.133M-1714.99 405.133L-1728.52 400.802L-1729.48 400.494L-1759.49 390.894L-1759.74 390.812L-1768.17 388.114L-1769.5 387.688L-1788.77 381.522M-1714.99 405.133L-1710.5 322.933L-1710.5 322.865L-1705.46 230.695M-1788.77 381.522L-1845.87 363.249M-1788.77 381.522L-1761.43 332.022M-1845.87 363.249L-1879.78 367.797M-1845.87 363.249L-1757.95 397.313L-1755.79 398.151L-1603.19 457.279M-1845.87 363.249L-1899.57 371.928M-1879.78 367.797L-1845.69 344.733M-1879.78 367.797L-1899.57 370.45M-1306.36 659.761L-1389.29 685.749M-1306.36 659.761L-1235.48 637.548M-1235.48 637.548L-1205.06 628.014M-1603.19 457.279L-1640.39 602.022M-1603.19 457.279L-1389.29 685.749M-1640.39 602.022L-1765.1 521.949M-1640.39 602.022L-1470.4 711.168M-1815.43 927.808H-1534.58M-1815.43 927.808L-1765.1 521.949M-1815.43 927.808H-1899.57M-1815.43 927.808L-1899.57 962.617M-1534.58 927.808L-1623.63 969.251M-1534.58 927.808L-1470.4 711.168M-1623.63 969.251L-1720.03 1014.11M-1623.63 969.251H-1899.57M-1765.1 521.949L-1778.15 537.945M-1470.4 711.168L-1389.29 685.749M-1205.06 628.014L-1038.78 538.698M-1778.15 537.945L-1839.1 612.635L-1839.34 612.931L-1857.9 635.68M-1778.15 537.945L-1899.57 408.653M-1857.9 635.68L-1899.57 598.366M-1857.9 635.68L-1899.57 686.746M-1720.03 1014.11L-1824.73 1062.84M-1720.03 1014.11H-1416.01M-1720.03 1014.11H-1899.57M-1416.01 1014.11L-1507.62 1062.84M-1824.73 1062.84H-1507.62M-1824.73 1062.84L-1899.57 1097.67M-1824.73 1062.84H-1899.57M-1840.87 1240.09L-1848.98 1237.91M-1848.98 1237.91L-1899.57 1224.34M-761.832 185.029L-765.519 184.428M-765.519 184.428L-768.288 183.977M-768.288 183.977L-769.545 185.491M-769.545 185.491L-771.033 187.282M-1286.93 173.323L-1283.96 172.437M-1286.93 173.323L-1262.16 145.617M-1283.96 172.437L-1264.89 180.386M-965.933 20.1019L-1003.41 153.763M-1003.41 153.763L-1014.58 155.656M-1003.41 153.763L-1005.14 159.913M-1005.14 159.913L-1014.58 155.656M-1005.14 159.913L-1018.56 207.792M-1018.56 207.792L-1014.58 155.656M-1314.41 202.538L-1472.37 310.606M-1472.37 310.606L-1501.05 339.979L-1501.06 339.992L-1510.2 349.351L-1511.07 350.24L-1527.04 366.606L-1527.4 366.969L-1564.6 405.072M-1472.37 310.606L-1496.18 470.215M-1564.6 405.072L-1536.93 439.315L-1536.18 440.254L-1532.08 445.318M-1564.6 405.072L-1611.56 346.933M-1705.46 230.695L-1708.01 235.305M-1719.63 256.349L-1743.23 299.083L-1751.36 313.796L-1751.39 313.843L-1761.43 332.022M-1719.63 256.349L-1754.31 282.914M-1761.43 332.022L-1754.31 282.914M-1532.08 445.318L-1496.18 470.215M-1754.31 282.914L-1767.42 291.788L-1767.5 291.841L-1775.92 297.535M-1775.92 297.535L-1776.62 298.008L-1796.12 311.203M-1775.92 297.535L-1786.02 291.909M-1796.12 311.203L-1845.69 344.733M-1796.12 311.203L-1786.02 291.909M-1845.69 344.733L-1899.57 297.147M-1803.95 216.718L-1819.78 220.461M-1803.95 216.718L-1880.01 138.223M-1819.78 220.461L-1836.97 224.526M-1819.78 220.461L-1880.01 138.223M-1836.97 224.526L-1877.42 234.096M-1836.97 224.526L-1899.57 171.927M-1877.42 234.096L-1899.57 215.5M-1877.42 234.096L-1899.57 222.212M-1786.02 291.909L-1899.57 223.957M956.768 337.569L960.898 345.257M956.768 337.569H834.46M591.842 330.132L589.845 337.569M591.842 330.132H712.153M589.845 337.569H712.153M712.153 330.132L712.153 337.569M712.153 337.569H834.46M-1262.16 145.617L-1229.46 143.19L-1214.92 152.114M-1262.16 145.617L-1214.92 152.114M-1262.16 145.617L-1264.89 180.386M-1880.01 138.223L-1881.3 138.642M-1904 403.935L-1899.57 408.653M1767.23 1309H3316M1767.23 1309H-442.853M3298.45 200.959L3298.78 201.419L3315.72 207.521V659.384M3298.45 200.959L3231.36 109.904L3191.71 138.197L3155.07 1.3399L3016.23 31.0376L2867.07 111.115L2797.67 92.2001L2661.45 121.765L2497.68 75.0988L2339.19 23.5488L2174.96 46.4043L2080.2 182.545L2034.61 167.87L1871.24 131.502L1751.48 272.578L1714.4 271.577L1669.36 165.208L1626.57 249.564L1596.22 240.8L1549.51 248.704L1544.21 247.074L1439.79 158.677L1364.28 158.061L1273.1 110.558L1140.92 120.63L1083.65 232.703L1031.69 323.273H475.402L363.31 191.919L342.832 165.703L342.297 165.02L209.416 117.73L71.1093 63.2976L-0.394712 136.649L-69.1593 110.259L-142.41 157.304L-254.197 37.4384L-385.507 171.171L-390.116 178.233L-478.577 156.955L-612.048 137.788L-683.573 166.045L-691.577 165.25L-738.724 177.697L-741.981 176.084L-745.316 179.437L-765.514 184.768L-768.283 184.317L-769.54 185.831L-793.799 192.234L-794.098 192.315L-893.208 49.0232L-917.198 82.7192L-965.928 20.4418L-1003.41 154.103L-1014.57 155.996L-1065.49 158.954L-1113.07 86.3936L-1156.49 160.489L-1214.92 152.454L-1229.46 143.529L-1262.16 145.957L-1286.92 173.663L-1328.23 186.005L-1437.93 156.692L-1602.25 166.765L-1698.07 240.176L-1705.45 231.035L-1708 235.645L-1751.32 204.607L-1803.95 217.058L-1880.01 138.563L-1881.3 138.642M3315.72 659.384V682.93M3315.72 682.93V703.723M3315.72 703.723V773.809M3315.72 773.809V1031M3315.72 1031V1237.73M3315.72 1237.73V1237.91M-1899.57 969.251V1014.11M-1899.57 969.251V962.617M-1899.57 962.617V927.808M-1899.57 927.808V686.746M-1899.57 686.746V598.366M-1899.57 598.366V408.653M-1899.57 408.653V371.928M-1899.57 371.928V370.45M-1899.57 370.45V297.147M-1899.57 297.147V223.957M-1899.57 223.957V222.212M-1899.57 222.212V215.5M-1899.57 215.5V171.927M-1899.57 171.927V144.588M-1899.57 144.588V139.756L-1881.3 138.642M-1899.57 144.588L-1881.3 138.642M-1899.57 1308.41V1260.58M-1899.57 1308.41V1308.75H-1784.11L-1783.51 1309H-442.853M-1899.57 1308.41H-1784.12L-1899.57 1260.58M-1899.57 1260.58V1224.34M-1899.57 1224.34V1174.06M-1899.57 1174.06V1115.94M-1899.57 1115.94V1097.67M-1899.57 1097.67V1062.84M-1899.57 1062.84V1014.11" stroke="white" stroke-miterlimit="10" stroke-linecap="round" stroke-linejoin="round"/>
</g>
</svg>
